# xmcd
#
# Track frame offsets: 
#        150
#        21698
#        42363
#        65216
#        90284
#        115019
#        141515
#        162260
#        188821
#        218109
#        248043
#        282344
#        323820
#        359175
#
# Disc length: 4795 seconds
#
# Revision: 2
# Processed by: cddbd v1.5.2PL0 Copyright (c) Steve Scherf et al.
# Submitted via: ExactAudioCopy v1.0b1
#
DISCID=de12b90e
DTITLE=Various Artist - Wire 04 Compilation CD1
DYEAR=2004
DGENRE=Techno
TTITLE0=Alter Ego - Rocker
TTITLE1=Zombie Nation feat. My Robot Friend - The Cut
TTITLE2=Thomas Brinkmann - Matesong
TTITLE3=DJ Rok feat. Tina 303 - Coke 'n' Shit
TTITLE4=Ellen Allien - Astral
TTITLE5=Paul Karkbrenner - Press On
TTITLE6=Beroshima - Dance The Machine (Chigaco Version)
TTITLE7=Westbam - Total Extrem
TTITLE8=Takkyu Ishino - Tesco Figilico
TTITLE9=Legowelt - Pandamonium
TTITLE10=Bad Boy Bill and Hatiras - Rokstar
TTITLE11=Kabuto - Warm-Up
TTITLE12=Fuck'in Data 1
TTITLE13=Fuck'in Data 2
EXTD=YEAR: 2004
EXTT0=
EXTT1=
EXTT2=
EXTT3=
EXTT4=
EXTT5=
EXTT6=
EXTT7=
EXTT8=
EXTT9=
EXTT10=
EXTT11=
EXTT12=
EXTT13=
PLAYORDER=
